<mxfile host="app.diagrams.net" agent="Mozilla/5.0 (Windows NT 10.0; Win64; x64) AppleWebKit/537.36 (KHTML, like Gecko) Chrome/138.0.0.0 Safari/537.36" version="28.0.4">
  <diagram name="Page-1" id="Km9sCCWySot0gj5OGnNR">
    <mxGraphModel dx="512" dy="562" grid="1" gridSize="10" guides="1" tooltips="1" connect="1" arrows="1" fold="1" page="1" pageScale="1" pageWidth="850" pageHeight="1100" math="0" shadow="0">
      <root>
        <mxCell id="0" />
        <mxCell id="1" parent="0" />
        <mxCell id="aBwTC1MOJDEOIUudXu9x-12" value="" style="rounded=1;whiteSpace=wrap;html=1;" vertex="1" parent="1">
          <mxGeometry x="160" y="80" width="120" height="80" as="geometry" />
        </mxCell>
        <mxCell id="aBwTC1MOJDEOIUudXu9x-13" value="" style="endArrow=classic;html=1;rounded=0;exitX=0.5;exitY=1;exitDx=0;exitDy=0;" edge="1" parent="1" source="aBwTC1MOJDEOIUudXu9x-12">
          <mxGeometry width="50" height="50" relative="1" as="geometry">
            <mxPoint x="220" y="320" as="sourcePoint" />
            <mxPoint x="220" y="200" as="targetPoint" />
          </mxGeometry>
        </mxCell>
        <mxCell id="aBwTC1MOJDEOIUudXu9x-14" value="" style="rounded=1;whiteSpace=wrap;html=1;" vertex="1" parent="1">
          <mxGeometry x="160" y="200" width="120" height="80" as="geometry" />
        </mxCell>
        <mxCell id="aBwTC1MOJDEOIUudXu9x-17" value="" style="endArrow=classic;html=1;rounded=0;exitX=0.5;exitY=1;exitDx=0;exitDy=0;" edge="1" parent="1">
          <mxGeometry width="50" height="50" relative="1" as="geometry">
            <mxPoint x="219.5" y="280" as="sourcePoint" />
            <mxPoint x="219.5" y="320" as="targetPoint" />
          </mxGeometry>
        </mxCell>
        <mxCell id="aBwTC1MOJDEOIUudXu9x-18" value="" style="rounded=1;whiteSpace=wrap;html=1;" vertex="1" parent="1">
          <mxGeometry x="160" y="320" width="120" height="80" as="geometry" />
        </mxCell>
        <mxCell id="aBwTC1MOJDEOIUudXu9x-20" value="" style="endArrow=classic;html=1;rounded=0;exitX=0.5;exitY=1;exitDx=0;exitDy=0;" edge="1" parent="1">
          <mxGeometry width="50" height="50" relative="1" as="geometry">
            <mxPoint x="219.5" y="400" as="sourcePoint" />
            <mxPoint x="219.5" y="440" as="targetPoint" />
          </mxGeometry>
        </mxCell>
        <mxCell id="aBwTC1MOJDEOIUudXu9x-21" value="" style="rounded=1;whiteSpace=wrap;html=1;" vertex="1" parent="1">
          <mxGeometry x="160" y="440" width="120" height="80" as="geometry" />
        </mxCell>
        <mxCell id="aBwTC1MOJDEOIUudXu9x-22" value="&lt;b&gt;Extracted Headers&lt;/b&gt;" style="text;html=1;align=center;verticalAlign=middle;whiteSpace=wrap;rounded=0;" vertex="1" parent="1">
          <mxGeometry x="190" y="105" width="60" height="30" as="geometry" />
        </mxCell>
        <mxCell id="aBwTC1MOJDEOIUudXu9x-23" value="&lt;b&gt;Binary Encoding&lt;/b&gt;" style="text;html=1;align=center;verticalAlign=middle;whiteSpace=wrap;rounded=0;" vertex="1" parent="1">
          <mxGeometry x="190" y="225" width="60" height="30" as="geometry" />
        </mxCell>
        <mxCell id="aBwTC1MOJDEOIUudXu9x-24" value="&lt;b&gt;HSTS=1&lt;/b&gt;&lt;div&gt;&lt;b&gt;CSP=0&lt;/b&gt;&lt;/div&gt;&lt;div&gt;&lt;b&gt;SCTO=0&lt;/b&gt;&lt;/div&gt;" style="text;html=1;align=center;verticalAlign=middle;whiteSpace=wrap;rounded=0;" vertex="1" parent="1">
          <mxGeometry x="190" y="345" width="60" height="30" as="geometry" />
        </mxCell>
        <mxCell id="aBwTC1MOJDEOIUudXu9x-25" value="&lt;b&gt;Sum of values -&amp;gt; Security Score&lt;/b&gt;" style="text;html=1;align=center;verticalAlign=middle;whiteSpace=wrap;rounded=0;" vertex="1" parent="1">
          <mxGeometry x="150" y="465" width="140" height="30" as="geometry" />
        </mxCell>
      </root>
    </mxGraphModel>
  </diagram>
</mxfile>
